<mxfile host="app.diagrams.net" agent="Mozilla/5.0 (Windows NT 10.0; Win64; x64) AppleWebKit/537.36 (KHTML, like Gecko) Chrome/127.0.0.0 Safari/537.36 Edg/127.0.0.0" version="24.7.7">
  <diagram name="第 1 页" id="fsKE9IQoVAuPPi1mYyoE">
    <mxGraphModel dx="792" dy="447" grid="1" gridSize="10" guides="1" tooltips="1" connect="1" arrows="1" fold="1" page="1" pageScale="1" pageWidth="827" pageHeight="1169" math="0" shadow="0">
      <root>
        <mxCell id="0" />
        <mxCell id="1" parent="0" />
        <mxCell id="fWEatDimK1wb_yXRniuB-1" value="功率电阻&lt;br&gt;4R 50W" style="rounded=1;whiteSpace=wrap;html=1;" vertex="1" parent="1">
          <mxGeometry x="200" y="140" width="100" height="40" as="geometry" />
        </mxCell>
        <mxCell id="fWEatDimK1wb_yXRniuB-2" value="功率电阻&lt;br&gt;4R 50W" style="rounded=1;whiteSpace=wrap;html=1;" vertex="1" parent="1">
          <mxGeometry x="200" y="180" width="100" height="40" as="geometry" />
        </mxCell>
        <mxCell id="fWEatDimK1wb_yXRniuB-3" value="" style="endArrow=none;html=1;rounded=0;entryX=0;entryY=0.5;entryDx=0;entryDy=0;exitX=0;exitY=0.5;exitDx=0;exitDy=0;" edge="1" parent="1" source="fWEatDimK1wb_yXRniuB-2" target="fWEatDimK1wb_yXRniuB-1">
          <mxGeometry width="50" height="50" relative="1" as="geometry">
            <mxPoint x="350" y="290" as="sourcePoint" />
            <mxPoint x="400" y="240" as="targetPoint" />
            <Array as="points">
              <mxPoint x="160" y="180" />
            </Array>
          </mxGeometry>
        </mxCell>
        <mxCell id="fWEatDimK1wb_yXRniuB-4" value="" style="endArrow=none;html=1;rounded=0;entryX=0;entryY=0.5;entryDx=0;entryDy=0;exitX=0;exitY=0.5;exitDx=0;exitDy=0;" edge="1" parent="1">
          <mxGeometry width="50" height="50" relative="1" as="geometry">
            <mxPoint x="300" y="160" as="sourcePoint" />
            <mxPoint x="300" y="200" as="targetPoint" />
            <Array as="points">
              <mxPoint x="340" y="180" />
            </Array>
          </mxGeometry>
        </mxCell>
        <mxCell id="fWEatDimK1wb_yXRniuB-5" value="电机" style="rounded=1;whiteSpace=wrap;html=1;" vertex="1" parent="1">
          <mxGeometry x="480" y="125" width="90" height="40" as="geometry" />
        </mxCell>
        <mxCell id="fWEatDimK1wb_yXRniuB-6" value="M+" style="rounded=1;whiteSpace=wrap;html=1;" vertex="1" parent="1">
          <mxGeometry x="480" y="165" width="90" height="30" as="geometry" />
        </mxCell>
        <mxCell id="fWEatDimK1wb_yXRniuB-7" value="M-" style="rounded=1;whiteSpace=wrap;html=1;" vertex="1" parent="1">
          <mxGeometry x="480" y="195" width="90" height="30" as="geometry" />
        </mxCell>
        <mxCell id="fWEatDimK1wb_yXRniuB-9" value="待测板" style="rounded=1;whiteSpace=wrap;html=1;" vertex="1" parent="1">
          <mxGeometry x="30" y="125" width="90" height="40" as="geometry" />
        </mxCell>
        <mxCell id="fWEatDimK1wb_yXRniuB-10" value="P1-1 TV-1" style="rounded=1;whiteSpace=wrap;html=1;" vertex="1" parent="1">
          <mxGeometry x="30" y="165" width="90" height="30" as="geometry" />
        </mxCell>
        <mxCell id="fWEatDimK1wb_yXRniuB-11" value="P1-2 TV-2" style="rounded=1;whiteSpace=wrap;html=1;" vertex="1" parent="1">
          <mxGeometry x="30" y="195" width="90" height="30" as="geometry" />
        </mxCell>
        <mxCell id="fWEatDimK1wb_yXRniuB-12" value="" style="endArrow=none;html=1;rounded=0;exitX=1;exitY=0.5;exitDx=0;exitDy=0;" edge="1" parent="1" source="fWEatDimK1wb_yXRniuB-10">
          <mxGeometry width="50" height="50" relative="1" as="geometry">
            <mxPoint x="110" y="230" as="sourcePoint" />
            <mxPoint x="160" y="180" as="targetPoint" />
          </mxGeometry>
        </mxCell>
        <mxCell id="fWEatDimK1wb_yXRniuB-14" value="编码器A" style="rounded=1;whiteSpace=wrap;html=1;" vertex="1" parent="1">
          <mxGeometry x="480" y="225" width="90" height="30" as="geometry" />
        </mxCell>
        <mxCell id="fWEatDimK1wb_yXRniuB-15" value="编码器B" style="rounded=1;whiteSpace=wrap;html=1;" vertex="1" parent="1">
          <mxGeometry x="480" y="255" width="90" height="30" as="geometry" />
        </mxCell>
        <mxCell id="fWEatDimK1wb_yXRniuB-16" value="电流采集模块" style="rounded=1;whiteSpace=wrap;html=1;" vertex="1" parent="1">
          <mxGeometry x="360" y="125" width="90" height="40" as="geometry" />
        </mxCell>
        <mxCell id="fWEatDimK1wb_yXRniuB-17" value="IN1" style="rounded=1;whiteSpace=wrap;html=1;" vertex="1" parent="1">
          <mxGeometry x="360" y="165" width="90" height="30" as="geometry" />
        </mxCell>
        <mxCell id="fWEatDimK1wb_yXRniuB-18" value="IN2" style="rounded=1;whiteSpace=wrap;html=1;" vertex="1" parent="1">
          <mxGeometry x="360" y="195" width="90" height="30" as="geometry" />
        </mxCell>
        <mxCell id="fWEatDimK1wb_yXRniuB-19" value="" style="endArrow=none;html=1;rounded=0;entryX=0;entryY=0.5;entryDx=0;entryDy=0;" edge="1" parent="1" target="fWEatDimK1wb_yXRniuB-17">
          <mxGeometry width="50" height="50" relative="1" as="geometry">
            <mxPoint x="340" y="180" as="sourcePoint" />
            <mxPoint x="390" y="200" as="targetPoint" />
          </mxGeometry>
        </mxCell>
        <mxCell id="fWEatDimK1wb_yXRniuB-20" value="" style="endArrow=none;html=1;rounded=0;entryX=0;entryY=0.5;entryDx=0;entryDy=0;exitX=1;exitY=0.5;exitDx=0;exitDy=0;" edge="1" parent="1" source="fWEatDimK1wb_yXRniuB-17" target="fWEatDimK1wb_yXRniuB-6">
          <mxGeometry width="50" height="50" relative="1" as="geometry">
            <mxPoint x="340" y="250" as="sourcePoint" />
            <mxPoint x="390" y="200" as="targetPoint" />
          </mxGeometry>
        </mxCell>
      </root>
    </mxGraphModel>
  </diagram>
</mxfile>
